<svg width="79" height="77" viewBox="0 0 79 77" fill="none" xmlns="http://www.w3.org/2000/svg">
<g id="Union">
<mask id="path-1-outside-1_326_991" maskUnits="userSpaceOnUse" x="0.800049" y="0.0800018" width="78" height="77" fill="black">
<rect fill="white" x="0.800049" y="0.0800018" width="78" height="77"/>
<path d="M19.76 11.6V52.8C19.76 56.5333 19.5734 59.6 19.2001 62C18.8801 64.4 18.0534 66.5067 16.72 68.32C15.12 70.56 13.04 72.1067 10.48 72.96C7.92005 73.8667 5.36005 74.3467 2.80005 74.4V68.4C5.94672 68.3467 8.37338 67.36 10.08 65.44C11.04 64.3733 11.6534 63.0667 11.92 61.52C12.24 59.9733 12.4 58.3467 12.4 56.64V11.6H19.76ZM44.4444 10.88C46.8978 10.88 49.2711 11.0933 51.5644 11.52C53.8578 11.8933 56.1244 12.6133 58.3644 13.68L56.6044 19.76C54.3111 18.6933 52.2311 17.9467 50.3644 17.52C48.5511 17.04 46.6844 16.8 44.7644 16.8C41.7244 16.8 39.3244 17.4667 37.5644 18.8C35.8044 20.1333 34.9244 22 34.9244 24.4C34.9244 26.4267 35.5644 28.0533 36.8444 29.28C38.1778 30.5067 40.3378 31.5733 43.3244 32.48L48.3644 34.08C52.9511 35.52 56.1778 37.4933 58.0444 40C59.9644 42.4533 60.9244 45.2267 60.9244 48.32C60.9244 50.5067 60.4711 52.5067 59.5644 54.32C58.7111 56.08 57.4844 57.6 55.8844 58.88C54.3378 60.1067 52.4978 61.0667 50.3644 61.76C48.2311 62.4 45.8844 62.72 43.3244 62.72C40.7644 62.72 38.1511 62.48 35.4844 62C32.8711 61.5733 30.2578 60.7467 27.6444 59.52L29.4044 53.52C31.6978 54.64 33.9378 55.4667 36.1244 56C38.3111 56.5333 40.6044 56.8 43.0044 56.8C45.8844 56.8 48.3378 56.1333 50.3644 54.8C52.3911 53.4667 53.4044 51.4933 53.4044 48.88C53.4044 47.92 53.2444 47.04 52.9244 46.24C52.6578 45.3867 52.1511 44.5867 51.4044 43.84C50.7111 43.0933 49.7511 42.4 48.5244 41.76C47.2978 41.12 45.7511 40.5067 43.8844 39.92L38.8444 38.32C35.1644 37.1467 32.3378 35.5467 30.3644 33.52C28.3911 31.4933 27.4044 28.7467 27.4044 25.28C27.4044 20.8533 28.8444 17.36 31.7244 14.8C34.6578 12.1867 38.8978 10.88 44.4444 10.88ZM69.955 12.16C68.5684 12 67.5284 11.4133 66.835 10.4C66.1417 9.38667 65.795 8.26667 65.795 7.04C65.795 5.76 66.2217 4.61333 67.0751 3.6C67.9817 2.58667 69.235 2.08 70.835 2.08C71.4751 2.08 72.1151 2.18667 72.7551 2.4C73.4484 2.61333 74.0617 3.01333 74.595 3.6C75.1817 4.18667 75.6617 4.98667 76.035 6C76.4084 6.96 76.595 8.18667 76.595 9.68C76.595 12.56 75.7684 15.2 74.1151 17.6C72.4617 20 70.355 21.8933 67.7951 23.28L65.475 20.08C66.8617 19.3333 68.0884 18.3467 69.155 17.12C70.275 15.84 71.0217 14.2667 71.3951 12.4L69.955 12.16Z"/>
</mask>
<path d="M19.76 11.6V52.8C19.76 56.5333 19.5734 59.6 19.2001 62C18.8801 64.4 18.0534 66.5067 16.72 68.32C15.12 70.56 13.04 72.1067 10.48 72.96C7.92005 73.8667 5.36005 74.3467 2.80005 74.4V68.4C5.94672 68.3467 8.37338 67.36 10.08 65.44C11.04 64.3733 11.6534 63.0667 11.92 61.52C12.24 59.9733 12.4 58.3467 12.4 56.64V11.6H19.76ZM44.4444 10.88C46.8978 10.88 49.2711 11.0933 51.5644 11.52C53.8578 11.8933 56.1244 12.6133 58.3644 13.68L56.6044 19.76C54.3111 18.6933 52.2311 17.9467 50.3644 17.52C48.5511 17.04 46.6844 16.8 44.7644 16.8C41.7244 16.8 39.3244 17.4667 37.5644 18.8C35.8044 20.1333 34.9244 22 34.9244 24.4C34.9244 26.4267 35.5644 28.0533 36.8444 29.28C38.1778 30.5067 40.3378 31.5733 43.3244 32.48L48.3644 34.08C52.9511 35.52 56.1778 37.4933 58.0444 40C59.9644 42.4533 60.9244 45.2267 60.9244 48.32C60.9244 50.5067 60.4711 52.5067 59.5644 54.32C58.7111 56.08 57.4844 57.6 55.8844 58.88C54.3378 60.1067 52.4978 61.0667 50.3644 61.76C48.2311 62.4 45.8844 62.72 43.3244 62.72C40.7644 62.72 38.1511 62.48 35.4844 62C32.8711 61.5733 30.2578 60.7467 27.6444 59.52L29.4044 53.52C31.6978 54.64 33.9378 55.4667 36.1244 56C38.3111 56.5333 40.6044 56.8 43.0044 56.8C45.8844 56.8 48.3378 56.1333 50.3644 54.8C52.3911 53.4667 53.4044 51.4933 53.4044 48.88C53.4044 47.92 53.2444 47.04 52.9244 46.24C52.6578 45.3867 52.1511 44.5867 51.4044 43.84C50.7111 43.0933 49.7511 42.4 48.5244 41.76C47.2978 41.12 45.7511 40.5067 43.8844 39.92L38.8444 38.32C35.1644 37.1467 32.3378 35.5467 30.3644 33.52C28.3911 31.4933 27.4044 28.7467 27.4044 25.28C27.4044 20.8533 28.8444 17.36 31.7244 14.8C34.6578 12.1867 38.8978 10.88 44.4444 10.88ZM69.955 12.16C68.5684 12 67.5284 11.4133 66.835 10.4C66.1417 9.38667 65.795 8.26667 65.795 7.04C65.795 5.76 66.2217 4.61333 67.0751 3.6C67.9817 2.58667 69.235 2.08 70.835 2.08C71.4751 2.08 72.1151 2.18667 72.7551 2.4C73.4484 2.61333 74.0617 3.01333 74.595 3.6C75.1817 4.18667 75.6617 4.98667 76.035 6C76.4084 6.96 76.595 8.18667 76.595 9.68C76.595 12.56 75.7684 15.2 74.1151 17.6C72.4617 20 70.355 21.8933 67.7951 23.28L65.475 20.08C66.8617 19.3333 68.0884 18.3467 69.155 17.12C70.275 15.84 71.0217 14.2667 71.3951 12.4L69.955 12.16Z" fill="#F4AA00"/>
<path d="M19.76 11.6H21.76V9.6H19.76V11.6ZM19.2001 62L17.2238 61.6926L17.2205 61.7141L17.2176 61.7357L19.2001 62ZM16.72 68.32L15.1087 67.1352L15.1006 67.1463L15.0926 67.1575L16.72 68.32ZM10.48 72.96L9.84759 71.0626L9.82992 71.0685L9.81235 71.0748L10.48 72.96ZM2.80005 74.4H0.800049V76.4421L2.84171 76.3996L2.80005 74.4ZM2.80005 68.4L2.76616 66.4003L0.800049 66.4336V68.4H2.80005ZM10.08 65.44L8.59343 64.102L8.58523 64.1113L10.08 65.44ZM11.92 61.52L9.96153 61.1148L9.95478 61.1474L9.94913 61.1802L11.92 61.52ZM12.4 11.6V9.6H10.4V11.6H12.4ZM51.5644 11.52L51.1986 13.4863L51.2208 13.4904L51.2431 13.494L51.5644 11.52ZM58.3644 13.68L60.2856 14.2361L60.7579 12.6045L59.2243 11.8743L58.3644 13.68ZM56.6044 19.76L55.761 21.5734L57.8767 22.5575L58.5256 20.3161L56.6044 19.76ZM50.3644 17.52L49.8526 19.4534L49.8856 19.4621L49.9188 19.4697L50.3644 17.52ZM37.5644 18.8L36.3567 17.2058L37.5644 18.8ZM36.8444 29.28L35.4606 30.724L35.4753 30.7381L35.4903 30.7519L36.8444 29.28ZM43.3244 32.48L43.9296 30.5738L43.9175 30.5699L43.9054 30.5662L43.3244 32.48ZM48.3644 34.08L47.7593 35.9863L47.7654 35.9882L48.3644 34.08ZM58.0444 40L56.4403 41.1945L56.4546 41.2138L56.4694 41.2326L58.0444 40ZM59.5644 54.32L57.7756 53.4256L57.7701 53.4365L57.7648 53.4475L59.5644 54.32ZM55.8844 58.88L57.1272 60.447L57.1338 60.4417L55.8844 58.88ZM50.3644 61.76L50.9391 63.6757L50.9609 63.6691L50.9826 63.6621L50.3644 61.76ZM35.4844 62L35.8387 60.0316L35.8227 60.0288L35.8067 60.0261L35.4844 62ZM27.6444 59.52L25.7253 58.9571L25.2428 60.6021L26.7946 61.3305L27.6444 59.52ZM29.4044 53.52L30.2821 51.7229L28.1524 50.6828L27.4853 52.9571L29.4044 53.52ZM36.1244 56L36.5983 54.057L36.1244 56ZM50.3644 54.8L51.4637 56.4708L50.3644 54.8ZM52.9244 46.24L51.0155 46.8366L51.0386 46.9107L51.0675 46.9828L52.9244 46.24ZM51.4044 43.84L49.9388 45.2009L49.964 45.228L49.9902 45.2542L51.4044 43.84ZM48.5244 41.76L49.4496 39.9868L48.5244 41.76ZM43.8844 39.92L43.2793 41.8263L43.2848 41.828L43.8844 39.92ZM38.8444 38.32L38.2369 40.2255L38.2393 40.2262L38.8444 38.32ZM30.3644 33.52L28.9315 34.9152L28.9315 34.9152L30.3644 33.52ZM31.7244 14.8L33.0532 16.2948L33.0548 16.2933L31.7244 14.8ZM69.955 12.16L70.2839 10.1872L70.2343 10.1789L70.1843 10.1732L69.955 12.16ZM66.835 10.4L65.1844 11.5294V11.5294L66.835 10.4ZM67.0751 3.6L65.5846 2.26641L65.5646 2.28878L65.5452 2.31173L67.0751 3.6ZM72.7551 2.4L72.1226 4.29737L72.1447 4.30472L72.1669 4.31156L72.7551 2.4ZM74.595 3.6L73.1152 4.94534L73.1472 4.98056L73.1808 5.01422L74.595 3.6ZM76.035 6L74.1584 6.69141L74.1646 6.70821L74.171 6.72489L76.035 6ZM74.1151 17.6L75.7621 18.7346L74.1151 17.6ZM67.7951 23.28L66.1758 24.4539L67.2054 25.874L68.7476 25.0386L67.7951 23.28ZM65.475 20.08L64.5268 18.3191L62.5139 19.403L63.8558 21.2539L65.475 20.08ZM69.155 17.12L67.6499 15.803L67.6458 15.8076L69.155 17.12ZM71.3951 12.4L73.3562 12.7922L73.7613 10.7668L71.7238 10.4272L71.3951 12.4ZM17.76 11.6V52.8H21.76V11.6H17.76ZM17.76 52.8C17.76 56.4788 17.5753 59.433 17.2238 61.6926L21.1763 62.3074C21.5715 59.767 21.76 56.5879 21.76 52.8H17.76ZM17.2176 61.7357C16.9385 63.8285 16.228 65.613 15.1087 67.1352L18.3314 69.5048C19.8787 67.4003 20.8216 64.9715 21.1825 62.2643L17.2176 61.7357ZM15.0926 67.1575C13.733 69.061 11.998 70.3458 9.84759 71.0626L11.1125 74.8574C14.0821 73.8675 16.5071 72.059 18.3475 69.4825L15.0926 67.1575ZM9.81235 71.0748C7.44134 71.9145 5.09233 72.3518 2.75839 72.4004L2.84171 76.3996C5.62777 76.3415 8.39875 75.8189 11.1477 74.8453L9.81235 71.0748ZM4.80005 74.4V68.4H0.800049V74.4H4.80005ZM2.83394 70.3997C6.4043 70.3392 9.41502 69.1986 11.5749 66.7687L8.58523 64.1113C7.33174 65.5215 5.48913 66.3541 2.76616 66.4003L2.83394 70.3997ZM11.5666 66.7779C12.8024 65.4048 13.5664 63.7421 13.891 61.8598L9.94913 61.1802C9.74033 62.3913 9.27768 63.3418 8.59346 64.1021L11.5666 66.7779ZM13.8786 61.9252C14.2283 60.235 14.4 58.472 14.4 56.64H10.4C10.4 58.2214 10.2518 59.7116 9.96153 61.1148L13.8786 61.9252ZM14.4 56.64V11.6H10.4V56.64H14.4ZM12.4 13.6H19.76V9.6H12.4V13.6ZM44.4444 12.88C46.7813 12.88 49.032 13.0832 51.1986 13.4863L51.9302 9.55374C49.5102 9.1035 47.0142 8.88 44.4444 8.88V12.88ZM51.2431 13.494C53.3376 13.835 55.4237 14.4948 57.5046 15.4857L59.2243 11.8743C56.8252 10.7318 54.3779 9.95168 51.8858 9.54599L51.2431 13.494ZM56.4433 13.1239L54.6833 19.2039L58.5256 20.3161L60.2856 14.2361L56.4433 13.1239ZM57.4479 17.9466C55.0651 16.8383 52.8493 16.0364 50.8101 15.5703L49.9188 19.4697C51.6129 19.8569 53.5571 20.5484 55.761 21.5734L57.4479 17.9466ZM50.8762 15.5866C48.892 15.0613 46.8531 14.8 44.7644 14.8V18.8C46.5158 18.8 48.2102 19.0187 49.8526 19.4534L50.8762 15.5866ZM44.7644 14.8C41.4499 14.8 38.5741 15.526 36.3567 17.2058L38.7721 20.3942C40.0747 19.4074 41.999 18.8 44.7644 18.8V14.8ZM36.3567 17.2058C34.0495 18.9537 32.9244 21.4368 32.9244 24.4H36.9244C36.9244 22.5632 37.5593 21.313 38.7721 20.3942L36.3567 17.2058ZM32.9244 24.4C32.9244 26.8865 33.7293 29.0648 35.4606 30.724L38.2282 27.836C37.3995 27.0418 36.9244 25.9668 36.9244 24.4H32.9244ZM35.4903 30.7519C37.1505 32.2793 39.6485 33.4542 42.7435 34.3938L43.9054 30.5662C41.027 29.6924 39.205 28.7341 38.1985 27.8081L35.4903 30.7519ZM42.7193 34.3862L47.7593 35.9863L48.9696 32.1738L43.9296 30.5738L42.7193 34.3862ZM47.7654 35.9882C52.1529 37.3657 54.9278 39.1634 56.4403 41.1945L59.6485 38.8055C57.4278 35.8233 53.7493 33.6743 48.9635 32.1718L47.7654 35.9882ZM56.4694 41.2326C58.1162 43.3368 58.9244 45.6769 58.9244 48.32H62.9244C62.9244 44.7764 61.8127 41.5699 59.6194 38.7674L56.4694 41.2326ZM58.9244 48.32C58.9244 50.2211 58.5327 51.9114 57.7756 53.4256L61.3533 55.2144C62.4095 53.1019 62.9244 50.7922 62.9244 48.32H58.9244ZM57.7648 53.4475C57.0475 54.9269 56.014 56.2151 54.635 57.3183L57.1338 60.4417C58.9549 58.9849 60.3747 57.2331 61.3641 55.1926L57.7648 53.4475ZM54.6416 57.313C53.3052 58.373 51.6836 59.2283 49.7463 59.8579L50.9826 63.6621C53.3119 62.9051 55.3703 61.8404 57.1272 60.447L54.6416 57.313ZM49.7897 59.8443C47.8683 60.4208 45.7182 60.72 43.3244 60.72V64.72C46.0506 64.72 48.5939 64.3792 50.9391 63.6757L49.7897 59.8443ZM43.3244 60.72C40.8899 60.72 38.3952 60.4918 35.8387 60.0316L35.1301 63.9684C37.9069 64.4682 40.6389 64.72 43.3244 64.72V60.72ZM35.8067 60.0261C33.3916 59.6318 30.9551 58.8646 28.4942 57.7095L26.7946 61.3305C29.5604 62.6287 32.3506 63.5148 35.1622 63.9739L35.8067 60.0261ZM29.5636 60.083L31.3236 54.083L27.4853 52.9571L25.7253 58.9571L29.5636 60.083ZM28.5268 55.3171C30.9322 56.4919 33.3073 57.3715 35.6505 57.943L36.5983 54.057C34.5682 53.5618 32.4633 52.7881 30.2821 51.7229L28.5268 55.3171ZM35.6505 57.943C38.0022 58.5166 40.4553 58.8 43.0044 58.8V54.8C40.7536 54.8 38.62 54.55 36.5983 54.057L35.6505 57.943ZM43.0044 58.8C46.2008 58.8 49.0536 58.0564 51.4637 56.4708L49.2652 53.1292C47.6219 54.2103 45.5681 54.8 43.0044 54.8V58.8ZM51.4637 56.4708C54.1024 54.7348 55.4044 52.1045 55.4044 48.88H51.4044C51.4044 50.8822 50.6798 52.1985 49.2652 53.1292L51.4637 56.4708ZM55.4044 48.88C55.4044 47.6946 55.2061 46.559 54.7814 45.4972L51.0675 46.9828C51.2828 47.521 51.4044 48.1454 51.4044 48.88H55.4044ZM54.8334 45.6435C54.4543 44.4303 53.7526 43.3597 52.8186 42.4258L49.9902 45.2542C50.5496 45.8136 50.8613 46.3431 51.0155 46.8366L54.8334 45.6435ZM52.87 42.4791C51.9768 41.5172 50.811 40.6972 49.4496 39.9868L47.5993 43.5332C48.6911 44.1028 49.4453 44.6694 49.9388 45.2009L52.87 42.4791ZM49.4496 39.9868C48.0857 39.2752 46.4209 38.6207 44.4841 38.012L43.2848 41.828C45.0813 42.3926 46.5099 42.9648 47.5993 43.5332L49.4496 39.9868ZM44.4896 38.0138L39.4496 36.4138L38.2393 40.2262L43.2793 41.8262L44.4896 38.0138ZM39.452 36.4145C35.9759 35.3062 33.4733 33.846 31.7974 32.1248L28.9315 34.9152C31.2022 37.2473 34.3529 38.9871 38.2369 40.2255L39.452 36.4145ZM31.7974 32.1248C30.2661 30.5521 29.4044 28.3499 29.4044 25.28H25.4044C25.4044 29.1434 26.5161 32.4346 28.9315 34.9152L31.7974 32.1248ZM29.4044 25.28C29.4044 21.3306 30.6657 18.417 33.0532 16.2948L30.3957 13.3052C27.0232 16.303 25.4044 20.3761 25.4044 25.28H29.4044ZM33.0548 16.2933C35.4954 14.119 39.1874 12.88 44.4444 12.88V8.88C38.6081 8.88 33.8201 10.2543 30.394 13.3067L33.0548 16.2933ZM70.1843 10.1732C69.2855 10.0695 68.805 9.73737 68.4857 9.27063L65.1844 11.5294C66.2518 13.0893 67.8512 13.9305 69.7258 14.1468L70.1843 10.1732ZM68.4857 9.27063C68.0197 8.58961 67.7951 7.8632 67.7951 7.04H63.795C63.795 8.67014 64.2637 10.1837 65.1844 11.5294L68.4857 9.27063ZM67.7951 7.04C67.7951 6.24907 68.0436 5.55475 68.6049 4.88827L65.5452 2.31173C64.3998 3.67192 63.795 5.27093 63.795 7.04H67.7951ZM68.5655 4.93359C69.025 4.42006 69.6938 4.08 70.835 4.08V0.0800018C68.7763 0.0800018 66.9384 0.753278 65.5846 2.26641L68.5655 4.93359ZM70.835 4.08C71.2487 4.08 71.6754 4.14831 72.1226 4.29737L73.3875 0.502629C72.5547 0.225021 71.7014 0.0800018 70.835 0.0800018V4.08ZM72.1669 4.31156C72.4862 4.4098 72.7998 4.59848 73.1152 4.94534L76.0749 2.25466C75.3236 1.42818 74.4106 0.81686 73.3432 0.48844L72.1669 4.31156ZM73.1808 5.01422C73.511 5.34434 73.8561 5.8711 74.1584 6.69141L77.9117 5.30859C77.4673 4.10223 76.8525 3.02899 76.0093 2.18579L73.1808 5.01422ZM74.171 6.72489C74.4238 7.37472 74.595 8.33267 74.595 9.68H78.595C78.595 8.04066 78.393 6.54528 77.8991 5.27511L74.171 6.72489ZM74.595 9.68C74.595 12.1496 73.8944 14.3948 72.468 16.4654L75.7621 18.7346C77.6424 16.0052 78.595 12.9704 78.595 9.68H74.595ZM72.468 16.4654C70.9935 18.6058 69.1247 20.2852 66.8425 21.5214L68.7476 25.0386C71.5854 23.5015 73.9299 21.3942 75.7621 18.7346L72.468 16.4654ZM69.4143 22.1061L67.0943 18.9061L63.8558 21.2539L66.1758 24.4539L69.4143 22.1061ZM66.4232 21.8409C68.0293 20.9761 69.4444 19.8352 70.6643 18.4324L67.6458 15.8076C66.7324 16.8581 65.6941 17.6905 64.5268 18.3191L66.4232 21.8409ZM70.6602 18.437C72.0369 16.8636 72.9227 14.96 73.3562 12.7922L69.4339 12.0078C69.1208 13.5734 68.5132 14.8164 67.6499 15.803L70.6602 18.437ZM71.7238 10.4272L70.2839 10.1872L69.6263 14.1328L71.0662 14.3728L71.7238 10.4272Z" fill="#F4AA00" mask="url(#path-1-outside-1_326_991)"/>
</g>
</svg>
