<svg width="32" height="32" viewBox="0 0 32 32" fill="none" xmlns="http://www.w3.org/2000/svg">
<mask id="mask0_31_1346" style="mask-type:alpha" maskUnits="userSpaceOnUse" x="0" y="0" width="32" height="32">
<rect width="32" height="32" fill="#D9D9D9"/>
</mask>
<g mask="url(#mask0_31_1346)">
<path d="M7.07697 28.6666C6.41201 28.6666 5.84407 28.4311 5.37314 27.9602C4.90218 27.4893 4.6667 26.9213 4.6667 26.2563V11.077C4.6667 10.412 4.90218 9.84405 5.37314 9.37311C5.84407 8.90216 6.41201 8.66668 7.07697 8.66668H10C10 7.00175 10.5838 5.58553 11.7513 4.41802C12.9188 3.2505 14.3351 2.66675 16 2.66675C17.6649 2.66675 19.0812 3.2505 20.2487 4.41802C21.4162 5.58553 22 7.00175 22 8.66668H24.923C25.588 8.66668 26.1559 8.90216 26.6269 9.37311C27.0978 9.84405 27.3333 10.412 27.3333 11.077V26.2563C27.3333 26.9213 27.0978 27.4893 26.6269 27.9602C26.1559 28.4311 25.588 28.6666 24.923 28.6666H7.07697ZM7.07697 26.6666H24.923C25.0256 26.6666 25.1196 26.6239 25.2051 26.5385C25.2906 26.453 25.3333 26.3589 25.3333 26.2563V11.077C25.3333 10.9744 25.2906 10.8803 25.2051 10.7948C25.1196 10.7094 25.0256 10.6666 24.923 10.6666H7.07697C6.97439 10.6666 6.88036 10.7094 6.79487 10.7948C6.7094 10.8803 6.66667 10.9744 6.66667 11.077V26.2563C6.66667 26.3589 6.7094 26.453 6.79487 26.5385C6.88036 26.6239 6.97439 26.6666 7.07697 26.6666ZM16 17.9999C17.6649 17.9999 19.0812 17.4162 20.2487 16.2487C21.4162 15.0811 22 13.6649 22 12H20C20 13.1111 19.6111 14.0555 18.8333 14.8333C18.0556 15.6111 17.1111 16 16 16C14.8889 16 13.9444 15.6111 13.1667 14.8333C12.3889 14.0555 12 13.1111 12 12H10C10 13.6649 10.5838 15.0811 11.7513 16.2487C12.9188 17.4162 14.3351 17.9999 16 17.9999ZM12 8.66668H20C20 7.55557 19.6111 6.61113 18.8333 5.83335C18.0556 5.05557 17.1111 4.66668 16 4.66668C14.8889 4.66668 13.9444 5.05557 13.1667 5.83335C12.3889 6.61113 12 7.55557 12 8.66668Z" fill="white"/>
</g>
</svg>
