<svg width="31" height="31" viewBox="0 0 31 31" fill="none" xmlns="http://www.w3.org/2000/svg">
<mask id="mask0_23_1272" style="mask-type:alpha" maskUnits="userSpaceOnUse" x="0" y="0" width="31" height="31">
<rect width="31" height="31" fill="#D9D9D9"/>
</mask>
<g mask="url(#mask0_23_1272)">
<path d="M24.9152 26.2308L17.0748 18.3904C16.4506 18.9057 15.7328 19.309 14.9214 19.6003C14.11 19.8916 13.2706 20.0372 12.4032 20.0372C10.2696 20.0372 8.46386 19.2985 6.986 17.821C5.50815 16.3435 4.76923 14.5382 4.76923 12.4052C4.76923 10.2721 5.50797 8.46623 6.98544 6.98744C8.46292 5.50867 10.2682 4.76929 12.4012 4.76929C14.5343 4.76929 16.3402 5.50821 17.819 6.98607C19.2978 8.46392 20.0372 10.2696 20.0372 12.4032C20.0372 13.2947 19.8875 14.1461 19.5882 14.9575C19.2889 15.7689 18.8896 16.4747 18.3903 17.0749L26.2308 24.9153L24.9152 26.2308ZM12.4032 18.1648C14.0116 18.1648 15.374 17.6066 16.4903 16.4903C17.6066 15.374 18.1647 14.0117 18.1647 12.4032C18.1647 10.7948 17.6066 9.43245 16.4903 8.31616C15.374 7.19986 14.0116 6.64171 12.4032 6.64171C10.7948 6.64171 9.43239 7.19986 8.3161 8.31616C7.19982 9.43245 6.64168 10.7948 6.64168 12.4032C6.64168 14.0117 7.19982 15.374 8.3161 16.4903C9.43239 17.6066 10.7948 18.1648 12.4032 18.1648Z" fill="white"/>
</g>
</svg>
