<svg width="118" height="47" viewBox="0 0 118 47" fill="none" xmlns="http://www.w3.org/2000/svg">
<path d="M110.494 40.77C107.97 40.77 106.073 40.0082 104.803 38.4846C103.534 36.9611 102.899 34.4591 102.899 30.9788V28.6039H107.828V31.2029C107.828 32.9057 108.022 34.2052 108.411 35.1014C108.799 35.9976 109.434 36.4457 110.315 36.4457C111.181 36.4457 111.824 36.1619 112.242 35.5943C112.66 35.0118 112.869 33.9961 112.869 32.5472C112.869 31.7705 112.75 31.0087 112.511 30.2619C112.287 29.515 111.936 28.7756 111.458 28.0437C110.98 27.3118 110.367 26.5949 109.62 25.8928L106.954 23.4282C105.55 22.1138 104.49 20.7097 103.773 19.216C103.056 17.7223 102.697 16.1017 102.697 14.3541C102.697 11.5907 103.347 9.55932 104.646 8.25981C105.961 6.9603 107.82 6.31055 110.225 6.31055C111.809 6.31055 113.131 6.63916 114.191 7.29638C115.267 7.93867 116.073 8.99919 116.611 10.4779C117.149 11.9567 117.417 13.9582 117.417 16.4826V18.1854H112.668V15.9C112.668 14.1972 112.488 12.8977 112.13 12.0015C111.771 11.0904 111.151 10.6348 110.27 10.6348C109.404 10.6348 108.762 10.8812 108.343 11.3742C107.925 11.8671 107.694 12.7558 107.649 14.0404C107.634 14.6976 107.716 15.3623 107.895 16.0345C108.089 16.7066 108.396 17.3639 108.814 18.0061C109.232 18.6484 109.77 19.2758 110.427 19.8882L113.183 22.42C114.796 23.8987 115.998 25.4671 116.79 27.1251C117.597 28.7831 118 30.5457 118 32.4128C118 35.0715 117.388 37.1328 116.163 38.5967C114.953 40.0455 113.063 40.77 110.494 40.77Z" fill="white"/>
<path d="M98.4043 40.5235C96.9704 40.5235 95.88 40.3517 95.1331 40.0082C94.4012 39.6497 93.9008 39.0821 93.632 38.3054C93.3631 37.5286 93.2287 36.5129 93.2287 35.2582V10.9484H90.2936V7.16192H93.2287V0.888428H98.3819V7.16192H101.877V10.9484H98.3819V34.6085C98.3819 35.1611 98.4566 35.5719 98.606 35.8408C98.7703 36.1096 99.1063 36.2889 99.6142 36.3785C100.122 36.4681 100.899 36.5129 101.944 36.5129V40.5235H98.4043Z" fill="white"/>
<path d="M79.8617 40.3219V6.71384H85.0373V10.4555C85.4257 9.15603 86.0978 8.14032 87.0538 7.40841C88.0247 6.6765 89.257 6.31055 90.7507 6.31055C90.7806 6.31055 90.7955 6.5346 90.7955 6.98271C90.8104 7.41588 90.8179 7.91626 90.8179 8.48387C90.8179 9.05147 90.8179 9.55932 90.8179 10.0074C90.8179 10.4555 90.8179 10.6796 90.8179 10.6796C90.1159 10.6796 89.384 10.7617 88.6222 10.926C87.8753 11.0904 87.1808 11.3667 86.5385 11.755C85.9111 12.1285 85.4108 12.6363 85.0373 13.2786V40.3219H79.8617Z" fill="white"/>
<path d="M68.5111 40.7252C66.9128 40.7252 65.5984 40.4638 64.5677 39.941C63.552 39.4182 62.7529 38.6639 62.1704 37.678C61.6028 36.6922 61.1995 35.5047 60.9605 34.1156C60.7364 32.7115 60.6244 31.1357 60.6244 29.3881V17.222C60.6244 15.1158 60.8559 13.2413 61.319 11.5982C61.782 9.95515 62.5886 8.66311 63.7387 7.72208C64.8889 6.78106 66.4797 6.31055 68.5111 6.31055C70.0496 6.31055 71.3267 6.57941 72.3424 7.11714C73.3581 7.65487 74.1572 8.41665 74.7398 9.40248C75.3223 10.3734 75.7331 11.5235 75.9721 12.8529C76.211 14.1823 76.3305 15.6386 76.3305 17.222V29.3881C76.3305 31.1058 76.226 32.6592 76.0169 34.0484C75.8077 35.4375 75.4194 36.6324 74.8518 37.6332C74.2842 38.634 73.4925 39.4032 72.4768 39.941C71.4611 40.4638 70.1392 40.7252 68.5111 40.7252ZM68.5111 36.4905C69.2729 36.4905 69.8405 36.2516 70.2139 35.7736C70.5873 35.2807 70.8338 34.601 70.9533 33.7347C71.0877 32.8684 71.1549 31.8676 71.1549 30.7324V16.2361C71.1549 15.086 71.0877 14.0852 70.9533 13.2338C70.8188 12.3824 70.5574 11.7252 70.1691 11.2621C69.7956 10.7841 69.243 10.5452 68.5111 10.5452C67.7493 10.5452 67.1742 10.7841 66.7859 11.2621C66.3975 11.7252 66.1361 12.3824 66.0017 13.2338C65.8822 14.0852 65.8224 15.086 65.8224 16.2361V30.7324C65.8224 31.8676 65.8822 32.8684 66.0017 33.7347C66.1361 34.601 66.3975 35.2807 66.7859 35.7736C67.1742 36.2516 67.7493 36.4905 68.5111 36.4905Z" fill="white"/>
<path d="M41.8352 46.5729V6.71382H46.9884V9.60411C47.4216 8.49878 48.0863 7.69219 48.9825 7.18433C49.8787 6.66154 50.7899 6.40015 51.716 6.40015C53.374 6.40015 54.6212 6.87066 55.4577 7.81168C56.3091 8.73777 56.8767 10.0074 57.1605 11.6206C57.4592 13.2338 57.6086 15.0486 57.6086 17.0651V29.276C57.6086 31.412 57.4517 33.3463 57.1381 35.079C56.8393 36.8117 56.2194 38.1859 55.2784 39.2016C54.3374 40.2173 52.9259 40.7251 51.0438 40.7251C50.1625 40.7251 49.3634 40.4712 48.6464 39.9634C47.9295 39.4406 47.3768 38.8431 46.9884 38.1709V46.5729H41.8352ZM49.8339 36.4681C50.8944 36.4532 51.589 35.9229 51.9176 34.8773C52.2612 33.8318 52.4329 32.2484 52.4329 30.1274V16.3705C52.4329 15.2503 52.3807 14.257 52.2761 13.3906C52.1715 12.5093 51.94 11.8222 51.5815 11.3293C51.238 10.8215 50.6778 10.5675 49.9011 10.5675C49.3037 10.5675 48.7883 10.7169 48.3552 11.0156C47.922 11.2994 47.5859 11.8596 47.3469 12.696C47.1079 13.5176 46.9884 14.7424 46.9884 16.3705V30.3291C46.9884 32.3455 47.1677 33.8766 47.5262 34.9222C47.8846 35.9528 48.6539 36.4681 49.8339 36.4681Z" fill="white"/>
<path d="M32.9496 40.3744C31.3364 40.3744 30.007 40.0981 28.9615 39.5454C27.9308 38.9928 27.1242 38.2011 26.5417 37.1705C25.9591 36.1398 25.5558 34.9075 25.3318 33.4736C25.1077 32.0396 24.9957 30.4339 24.9957 28.6564V24.9596H29.9921V28.9477C29.9921 31.4422 30.1788 33.2271 30.5522 34.3026C30.9406 35.378 31.7397 35.9158 32.9496 35.9158C33.7711 35.9158 34.3835 35.7216 34.7868 35.3332C35.1901 34.9449 35.4515 34.325 35.571 33.4736C35.6905 32.6222 35.7503 31.4944 35.7503 30.0904C35.7503 28.4473 35.4366 27.0059 34.8092 25.7661C34.1968 24.5114 33.2932 23.2642 32.0982 22.0245L29.3647 19.291C28.603 18.4844 27.8711 17.6255 27.169 16.7144C26.4819 15.7883 25.9218 14.7502 25.4886 13.6C25.0555 12.4499 24.8389 11.1429 24.8389 9.67911C24.8389 7.66263 25.0704 5.92995 25.5334 4.48107C25.9965 3.03219 26.7956 1.92686 27.9308 1.16508C29.0809 0.388359 30.6867 0 32.748 0C34.3462 0 35.6382 0.268864 36.6241 0.806592C37.6099 1.32938 38.3642 2.0837 38.887 3.06953C39.4098 4.05537 39.7683 5.23538 39.9625 6.60958C40.1567 7.98377 40.2537 9.52227 40.2537 11.2251V13.6H35.3694V10.889C35.3694 9.45506 35.3022 8.26757 35.1677 7.32655C35.0482 6.37059 34.8018 5.65362 34.4284 5.17563C34.0549 4.69765 33.4948 4.45866 32.748 4.45866C32.0459 4.45866 31.4783 4.62297 31.0451 4.95158C30.612 5.28019 30.2983 5.78805 30.1041 6.47514C29.9099 7.1473 29.8129 8.02111 29.8129 9.09657C29.8129 10.0525 29.9249 10.8517 30.1489 11.4939C30.3879 12.1362 30.7464 12.7486 31.2244 13.3312C31.7173 13.8988 32.3148 14.556 33.0168 15.3028L35.9295 18.4172C37.4083 19.9856 38.5883 21.6809 39.4696 23.5032C40.3658 25.3255 40.8139 27.4017 40.8139 29.7319C40.8139 31.9874 40.5824 33.9068 40.1193 35.4901C39.6563 37.0734 38.8571 38.2833 37.7219 39.1197C36.5867 39.9562 34.996 40.3744 32.9496 40.3744Z" fill="#E86F00"/>
<path d="M7.83125 40.3632C5.23619 40.3632 3.27838 39.6001 1.95781 38.0738C0.652604 36.5475 0 34.2729 0 31.25V25.3597H5.20548V30.961C5.20548 31.8649 5.25154 32.6948 5.34368 33.4505C5.43581 34.2062 5.65078 34.8138 5.9886 35.2731C6.34178 35.7177 6.90993 35.94 7.69305 35.94C8.46082 35.94 9.01362 35.7177 9.35143 35.2731C9.70461 34.8286 9.92726 34.2062 10.0194 33.406C10.1115 32.6059 10.1576 31.6723 10.1576 30.6054V0.776245H15.5243V30.3831C15.5243 33.6431 14.864 36.1252 13.5435 37.8293C12.2382 39.5186 10.3342 40.3632 7.83125 40.3632Z" fill="white"/>
<path d="M24.5646 40.3632C23.0753 40.3632 21.848 40.0869 20.8827 39.5344C19.9313 38.9819 19.1866 38.1905 18.6488 37.1601C18.111 36.1298 17.7387 34.8978 17.5318 33.4643C17.325 32.0307 17.2216 30.4254 17.2216 28.6485V24.9526H21.8342V28.9396C21.8342 31.4334 22.0066 33.2179 22.3513 34.293C22.7099 35.3682 23.4476 35.9058 24.5646 35.9058C25.323 35.9058 25.8884 35.7116 26.2607 35.3234C26.633 34.9351 26.8744 34.3154 26.9847 33.4643C27.095 32.6131 27.1502 31.4857 27.1502 30.082C27.1502 28.4394 26.8606 26.9984 26.2814 25.759C25.716 24.5046 24.8818 23.2577 23.7786 22.0183L21.2551 19.2856C20.5518 18.4793 19.8761 17.6206 19.228 16.7097C18.5936 15.7839 18.0765 14.7461 17.6766 13.5963C17.2767 12.4464 17.0768 11.1398 17.0768 9.67641C17.0768 7.66049 17.2905 5.9283 17.718 4.47982C18.1455 3.03135 18.8832 1.92632 19.9313 1.16475C20.9931 0.388251 22.4755 0 24.3784 0C25.8539 0 27.0467 0.268789 27.9569 0.806368C28.867 1.32901 29.5634 2.08312 30.046 3.06868C30.5286 4.05424 30.8596 5.23392 31.0389 6.60774C31.2181 7.98155 31.3078 9.51962 31.3078 11.222V13.5963H26.7985V10.886C26.7985 9.45242 26.7365 8.26527 26.6124 7.32451C26.502 6.36881 26.2745 5.65204 25.9298 5.17419C25.585 4.69635 25.0679 4.45742 24.3784 4.45742C23.7303 4.45742 23.2063 4.62168 22.8064 4.9502C22.4065 5.27872 22.1169 5.78644 21.9377 6.47334C21.7584 7.14531 21.6688 8.01888 21.6688 9.09404C21.6688 10.0497 21.7722 10.8486 21.979 11.4907C22.1997 12.1328 22.5306 12.7451 22.9719 13.3275C23.4269 13.8949 23.9785 14.552 24.6266 15.2986L27.3156 18.4121C28.6808 19.98 29.7702 21.6749 30.5838 23.4967C31.4112 25.3185 31.8249 27.3941 31.8249 29.7236C31.8249 31.9785 31.6111 33.8973 31.1836 35.4802C30.7562 37.0631 30.0184 38.2726 28.9704 39.1088C27.9224 39.9451 26.4538 40.3632 24.5646 40.3632Z" fill="#E86F00"/>
</svg>
