<svg width="124" height="60" viewBox="0 0 124 60" fill="none" xmlns="http://www.w3.org/2000/svg">
<mask id="path-1-outside-1_16_1203" maskUnits="userSpaceOnUse" x="0" y="0.97998" width="124" height="59" fill="black">
<rect fill="white" y="0.97998" width="124" height="59"/>
<path fill-rule="evenodd" clip-rule="evenodd" d="M14.72 41.02V10.12H9.2V43.9C9.2 45.18 9.08 46.4 8.84 47.56C8.64 48.72 8.18 49.7 7.46 50.5C6.18 51.94 4.36 52.68 2 52.72V57.22C3.92 57.18 5.84 56.82 7.76 56.14C9.68 55.5 11.24 54.34 12.44 52.66C13.44 51.3 14.06 49.72 14.3 47.92C14.58 46.12 14.72 43.82 14.72 41.02ZM38.5733 10.06C36.8533 9.73998 35.0733 9.57998 33.2333 9.57998C29.0733 9.57998 25.8933 10.56 23.6933 12.52C21.5333 14.44 20.4533 17.06 20.4533 20.38C20.4533 22.98 21.1933 25.04 22.6733 26.56C24.1533 28.08 26.2733 29.28 29.0333 30.16L32.8133 31.36C34.2133 31.8 35.3733 32.26 36.2933 32.74C37.2133 33.22 37.9333 33.74 38.4533 34.3C39.0133 34.86 39.3933 35.46 39.5933 36.1C39.8333 36.7 39.9533 37.36 39.9533 38.08C39.9533 40.04 39.1933 41.52 37.6733 42.52C36.1533 43.52 34.3133 44.02 32.1533 44.02C30.3533 44.02 28.6333 43.82 26.9933 43.42C25.3533 43.02 23.6733 42.4 21.9533 41.56L20.6333 46.06C22.5933 46.98 24.5533 47.6 26.5133 47.92C28.5133 48.28 30.4733 48.46 32.3933 48.46C34.3133 48.46 36.0733 48.22 37.6733 47.74C39.2733 47.22 40.6533 46.5 41.8133 45.58C43.0133 44.62 43.9333 43.48 44.5733 42.16C45.2533 40.8 45.5933 39.3 45.5933 37.66C45.5933 35.34 44.8733 33.26 43.4333 31.42C42.0333 29.54 39.6133 28.06 36.1733 26.98L32.3933 25.78C30.1533 25.1 28.5333 24.3 27.5333 23.38C26.5733 22.46 26.0933 21.24 26.0933 19.72C26.0933 17.92 26.7533 16.52 28.0733 15.52C29.3933 14.52 31.1933 14.02 33.4733 14.02C34.9133 14.02 36.3133 14.2 37.6733 14.56C39.0733 14.88 40.6333 15.44 42.3533 16.24L43.6733 11.68C41.9933 10.88 40.2933 10.34 38.5733 10.06ZM50.0262 9.21998C50.5462 9.97998 51.3262 10.42 52.3662 10.54L53.4462 10.72C53.1662 12.12 52.6062 13.3 51.7662 14.26C50.9662 15.18 50.0462 15.92 49.0062 16.48L50.7463 18.88C52.6662 17.84 54.2463 16.42 55.4862 14.62C56.7262 12.82 57.3462 10.84 57.3462 8.67998C57.3462 7.55998 57.2062 6.63998 56.9263 5.91998C56.6462 5.15998 56.2862 4.55998 55.8462 4.11998C55.4463 3.67998 54.9862 3.37998 54.4662 3.21998C53.9862 3.05998 53.5062 2.97998 53.0262 2.97998C51.8262 2.97998 50.8862 3.35998 50.2062 4.11998C49.5662 4.87998 49.2463 5.73998 49.2463 6.69998C49.2463 7.61998 49.5062 8.45998 50.0262 9.21998ZM61.34 42C62.14 42.24 62.9667 42.36 63.82 42.36C64.9667 42.36 66.0867 42.16 67.18 41.76C68.3 41.36 69.2867 40.7467 70.14 39.92C71.02 39.0667 71.7133 38 72.22 36.72C72.7533 35.44 73.02 33.92 73.02 32.16C73.02 30.6933 72.82 29.3867 72.42 28.24C72.0467 27.0933 71.5 26.1333 70.78 25.36C70.0867 24.56 69.2467 23.96 68.26 23.56C67.2733 23.16 66.18 22.96 64.98 22.96C63.7 22.96 62.5933 23.2 61.66 23.68C60.7533 24.16 59.9667 24.72 59.3 25.36L58.9 22.96H56.58V51.2H59.34V41.04C59.9 41.44 60.5667 41.76 61.34 42ZM62.7 25.48C63.2333 25.32 63.7933 25.24 64.38 25.24C66.3267 25.24 67.7667 25.8533 68.7 27.08C69.6333 28.3067 70.1 30.0133 70.1 32.2C70.1 33.6667 69.9 34.9067 69.5 35.92C69.1267 36.9333 68.6333 37.76 68.02 38.4C67.4067 39.0133 66.7 39.4667 65.9 39.76C65.1 40.0267 64.2867 40.16 63.46 40.16C62.74 40.16 62.02 40.0533 61.3 39.84C60.6067 39.6267 59.9533 39.2933 59.34 38.84V27.84C59.5533 27.5467 59.82 27.2533 60.14 26.96C60.4867 26.64 60.8733 26.36 61.3 26.12C61.7267 25.8533 62.1933 25.64 62.7 25.48ZM92.3575 36.64C92.8108 35.3867 93.0375 33.9733 93.0375 32.4C93.0375 30.8533 92.8108 29.4933 92.3575 28.32C91.9308 27.1467 91.3308 26.16 90.5575 25.36C89.7842 24.56 88.8642 23.96 87.7975 23.56C86.7309 23.16 85.5842 22.96 84.3575 22.96C83.1042 22.96 81.9308 23.1733 80.8375 23.6C79.7708 24.0267 78.8375 24.6667 78.0375 25.52C77.2375 26.3467 76.5975 27.3733 76.1175 28.6C75.6642 29.8267 75.4375 31.2267 75.4375 32.8C75.4375 34.3467 75.6642 35.72 76.1175 36.92C76.5708 38.0933 77.1842 39.0933 77.9575 39.92C78.7308 40.72 79.6508 41.3333 80.7175 41.76C81.7842 42.16 82.9442 42.36 84.1975 42.36C85.4242 42.36 86.5708 42.1467 87.6375 41.72C88.7309 41.2667 89.6775 40.6133 90.4775 39.76C91.2775 38.9067 91.9042 37.8667 92.3575 36.64ZM89.5975 29.24C89.9442 30.1733 90.1175 31.2933 90.1175 32.6C90.1175 34.0133 89.9575 35.2 89.6375 36.16C89.3175 37.12 88.8775 37.9067 88.3175 38.52C87.7842 39.1067 87.1708 39.5333 86.4775 39.8C85.7842 40.04 85.0642 40.16 84.3175 40.16C83.5708 40.16 82.8375 40.0267 82.1175 39.76C81.3975 39.4667 80.7575 39.0267 80.1975 38.44C79.6375 37.8267 79.1842 37.04 78.8375 36.08C78.5175 35.12 78.3575 33.96 78.3575 32.6C78.3575 31.24 78.5175 30.0933 78.8375 29.16C79.1842 28.2 79.6242 27.4267 80.1575 26.84C80.7175 26.2533 81.3442 25.8267 82.0375 25.56C82.7575 25.2933 83.4908 25.16 84.2375 25.16C84.9842 25.16 85.7042 25.3067 86.3975 25.6C87.1175 25.8667 87.7442 26.3067 88.2775 26.92C88.8375 27.5067 89.2775 28.28 89.5975 29.24ZM98.6188 23.2H96.6188V42H99.3788V31.92C99.3788 30.8533 99.5254 29.9067 99.8188 29.08C100.112 28.2533 100.512 27.5733 101.019 27.04C101.525 26.5067 102.112 26.1067 102.779 25.84C103.445 25.5467 104.165 25.4 104.939 25.4C105.472 25.4 105.939 25.4533 106.339 25.56C106.739 25.6667 107.099 25.8 107.419 25.96L107.939 23.48C107.645 23.3467 107.259 23.2267 106.779 23.12C106.299 23.0133 105.725 22.96 105.059 22.96C103.699 22.96 102.485 23.3333 101.419 24.08C100.352 24.8 99.5921 25.76 99.1388 26.96L98.6188 23.2ZM114.621 25.32H120.541V23.2H114.621V17.2H111.821V23.2H108.741V25.32H111.821V37.32C111.821 40.44 113.527 42 116.941 42C117.874 42 118.741 41.92 119.541 41.76C120.341 41.6 121.007 41.4133 121.541 41.2L121.101 39.08C120.621 39.24 120.061 39.3867 119.421 39.52C118.781 39.6533 118.127 39.72 117.461 39.72C116.607 39.72 115.914 39.5333 115.381 39.16C114.874 38.7867 114.621 38.0533 114.621 36.96V25.32Z"/>
</mask>
<path fill-rule="evenodd" clip-rule="evenodd" d="M14.72 41.02V10.12H9.2V43.9C9.2 45.18 9.08 46.4 8.84 47.56C8.64 48.72 8.18 49.7 7.46 50.5C6.18 51.94 4.36 52.68 2 52.72V57.22C3.92 57.18 5.84 56.82 7.76 56.14C9.68 55.5 11.24 54.34 12.44 52.66C13.44 51.3 14.06 49.72 14.3 47.92C14.58 46.12 14.72 43.82 14.72 41.02ZM38.5733 10.06C36.8533 9.73998 35.0733 9.57998 33.2333 9.57998C29.0733 9.57998 25.8933 10.56 23.6933 12.52C21.5333 14.44 20.4533 17.06 20.4533 20.38C20.4533 22.98 21.1933 25.04 22.6733 26.56C24.1533 28.08 26.2733 29.28 29.0333 30.16L32.8133 31.36C34.2133 31.8 35.3733 32.26 36.2933 32.74C37.2133 33.22 37.9333 33.74 38.4533 34.3C39.0133 34.86 39.3933 35.46 39.5933 36.1C39.8333 36.7 39.9533 37.36 39.9533 38.08C39.9533 40.04 39.1933 41.52 37.6733 42.52C36.1533 43.52 34.3133 44.02 32.1533 44.02C30.3533 44.02 28.6333 43.82 26.9933 43.42C25.3533 43.02 23.6733 42.4 21.9533 41.56L20.6333 46.06C22.5933 46.98 24.5533 47.6 26.5133 47.92C28.5133 48.28 30.4733 48.46 32.3933 48.46C34.3133 48.46 36.0733 48.22 37.6733 47.74C39.2733 47.22 40.6533 46.5 41.8133 45.58C43.0133 44.62 43.9333 43.48 44.5733 42.16C45.2533 40.8 45.5933 39.3 45.5933 37.66C45.5933 35.34 44.8733 33.26 43.4333 31.42C42.0333 29.54 39.6133 28.06 36.1733 26.98L32.3933 25.78C30.1533 25.1 28.5333 24.3 27.5333 23.38C26.5733 22.46 26.0933 21.24 26.0933 19.72C26.0933 17.92 26.7533 16.52 28.0733 15.52C29.3933 14.52 31.1933 14.02 33.4733 14.02C34.9133 14.02 36.3133 14.2 37.6733 14.56C39.0733 14.88 40.6333 15.44 42.3533 16.24L43.6733 11.68C41.9933 10.88 40.2933 10.34 38.5733 10.06ZM50.0262 9.21998C50.5462 9.97998 51.3262 10.42 52.3662 10.54L53.4462 10.72C53.1662 12.12 52.6062 13.3 51.7662 14.26C50.9662 15.18 50.0462 15.92 49.0062 16.48L50.7463 18.88C52.6662 17.84 54.2463 16.42 55.4862 14.62C56.7262 12.82 57.3462 10.84 57.3462 8.67998C57.3462 7.55998 57.2062 6.63998 56.9263 5.91998C56.6462 5.15998 56.2862 4.55998 55.8462 4.11998C55.4463 3.67998 54.9862 3.37998 54.4662 3.21998C53.9862 3.05998 53.5062 2.97998 53.0262 2.97998C51.8262 2.97998 50.8862 3.35998 50.2062 4.11998C49.5662 4.87998 49.2463 5.73998 49.2463 6.69998C49.2463 7.61998 49.5062 8.45998 50.0262 9.21998ZM61.34 42C62.14 42.24 62.9667 42.36 63.82 42.36C64.9667 42.36 66.0867 42.16 67.18 41.76C68.3 41.36 69.2867 40.7467 70.14 39.92C71.02 39.0667 71.7133 38 72.22 36.72C72.7533 35.44 73.02 33.92 73.02 32.16C73.02 30.6933 72.82 29.3867 72.42 28.24C72.0467 27.0933 71.5 26.1333 70.78 25.36C70.0867 24.56 69.2467 23.96 68.26 23.56C67.2733 23.16 66.18 22.96 64.98 22.96C63.7 22.96 62.5933 23.2 61.66 23.68C60.7533 24.16 59.9667 24.72 59.3 25.36L58.9 22.96H56.58V51.2H59.34V41.04C59.9 41.44 60.5667 41.76 61.34 42ZM62.7 25.48C63.2333 25.32 63.7933 25.24 64.38 25.24C66.3267 25.24 67.7667 25.8533 68.7 27.08C69.6333 28.3067 70.1 30.0133 70.1 32.2C70.1 33.6667 69.9 34.9067 69.5 35.92C69.1267 36.9333 68.6333 37.76 68.02 38.4C67.4067 39.0133 66.7 39.4667 65.9 39.76C65.1 40.0267 64.2867 40.16 63.46 40.16C62.74 40.16 62.02 40.0533 61.3 39.84C60.6067 39.6267 59.9533 39.2933 59.34 38.84V27.84C59.5533 27.5467 59.82 27.2533 60.14 26.96C60.4867 26.64 60.8733 26.36 61.3 26.12C61.7267 25.8533 62.1933 25.64 62.7 25.48ZM92.3575 36.64C92.8108 35.3867 93.0375 33.9733 93.0375 32.4C93.0375 30.8533 92.8108 29.4933 92.3575 28.32C91.9308 27.1467 91.3308 26.16 90.5575 25.36C89.7842 24.56 88.8642 23.96 87.7975 23.56C86.7309 23.16 85.5842 22.96 84.3575 22.96C83.1042 22.96 81.9308 23.1733 80.8375 23.6C79.7708 24.0267 78.8375 24.6667 78.0375 25.52C77.2375 26.3467 76.5975 27.3733 76.1175 28.6C75.6642 29.8267 75.4375 31.2267 75.4375 32.8C75.4375 34.3467 75.6642 35.72 76.1175 36.92C76.5708 38.0933 77.1842 39.0933 77.9575 39.92C78.7308 40.72 79.6508 41.3333 80.7175 41.76C81.7842 42.16 82.9442 42.36 84.1975 42.36C85.4242 42.36 86.5708 42.1467 87.6375 41.72C88.7309 41.2667 89.6775 40.6133 90.4775 39.76C91.2775 38.9067 91.9042 37.8667 92.3575 36.64ZM89.5975 29.24C89.9442 30.1733 90.1175 31.2933 90.1175 32.6C90.1175 34.0133 89.9575 35.2 89.6375 36.16C89.3175 37.12 88.8775 37.9067 88.3175 38.52C87.7842 39.1067 87.1708 39.5333 86.4775 39.8C85.7842 40.04 85.0642 40.16 84.3175 40.16C83.5708 40.16 82.8375 40.0267 82.1175 39.76C81.3975 39.4667 80.7575 39.0267 80.1975 38.44C79.6375 37.8267 79.1842 37.04 78.8375 36.08C78.5175 35.12 78.3575 33.96 78.3575 32.6C78.3575 31.24 78.5175 30.0933 78.8375 29.16C79.1842 28.2 79.6242 27.4267 80.1575 26.84C80.7175 26.2533 81.3442 25.8267 82.0375 25.56C82.7575 25.2933 83.4908 25.16 84.2375 25.16C84.9842 25.16 85.7042 25.3067 86.3975 25.6C87.1175 25.8667 87.7442 26.3067 88.2775 26.92C88.8375 27.5067 89.2775 28.28 89.5975 29.24ZM98.6188 23.2H96.6188V42H99.3788V31.92C99.3788 30.8533 99.5254 29.9067 99.8188 29.08C100.112 28.2533 100.512 27.5733 101.019 27.04C101.525 26.5067 102.112 26.1067 102.779 25.84C103.445 25.5467 104.165 25.4 104.939 25.4C105.472 25.4 105.939 25.4533 106.339 25.56C106.739 25.6667 107.099 25.8 107.419 25.96L107.939 23.48C107.645 23.3467 107.259 23.2267 106.779 23.12C106.299 23.0133 105.725 22.96 105.059 22.96C103.699 22.96 102.485 23.3333 101.419 24.08C100.352 24.8 99.5921 25.76 99.1388 26.96L98.6188 23.2ZM114.621 25.32H120.541V23.2H114.621V17.2H111.821V23.2H108.741V25.32H111.821V37.32C111.821 40.44 113.527 42 116.941 42C117.874 42 118.741 41.92 119.541 41.76C120.341 41.6 121.007 41.4133 121.541 41.2L121.101 39.08C120.621 39.24 120.061 39.3867 119.421 39.52C118.781 39.6533 118.127 39.72 117.461 39.72C116.607 39.72 115.914 39.5333 115.381 39.16C114.874 38.7867 114.621 38.0533 114.621 36.96V25.32Z" fill="#F4AA00"/>
<path d="M14.72 10.12H16.72V8.11998H14.72V10.12ZM9.2 10.12V8.11998H7.2V10.12H9.2ZM8.84 47.56L6.88148 47.1548L6.87474 47.1874L6.86908 47.2202L8.84 47.56ZM7.46 50.5L5.97338 49.162L5.96518 49.1713L7.46 50.5ZM2 52.72L1.96611 50.7203L0 50.7536V52.72H2ZM2 57.22H0V59.2621L2.04166 59.2195L2 57.22ZM7.76 56.14L7.12755 54.2426L7.10987 54.2485L7.09231 54.2547L7.76 56.14ZM12.44 52.66L10.8287 51.4752L10.8205 51.4863L10.8125 51.4975L12.44 52.66ZM14.3 47.92L12.3238 47.6126L12.3204 47.6341L12.3175 47.6557L14.3 47.92ZM38.5733 10.06L38.2075 12.0262L38.2297 12.0304L38.2519 12.034L38.5733 10.06ZM23.6933 12.52L25.022 14.0148L25.0237 14.0133L23.6933 12.52ZM22.6733 26.56L21.2403 27.9552H21.2403L22.6733 26.56ZM29.0333 30.16L28.4257 32.0655L28.4281 32.0662L29.0333 30.16ZM32.8133 31.36L32.2081 33.2662L32.2136 33.268L32.8133 31.36ZM36.2933 32.74L35.3681 34.5131L36.2933 32.74ZM38.4533 34.3L36.9877 35.6609L37.0129 35.688L37.0391 35.7142L38.4533 34.3ZM39.5933 36.1L37.6843 36.6965L37.7075 36.7707L37.7363 36.8428L39.5933 36.1ZM26.9933 43.42L27.4672 41.4769L27.4672 41.4769L26.9933 43.42ZM21.9533 41.56L22.831 39.7628L20.7013 38.7228L20.0341 40.997L21.9533 41.56ZM20.6333 46.06L18.7141 45.497L18.2316 47.142L19.7835 47.8705L20.6333 46.06ZM26.5133 47.92L26.8676 45.9516L26.8516 45.9487L26.8356 45.9461L26.5133 47.92ZM37.6733 47.74L38.248 49.6556L38.2698 49.6491L38.2915 49.6421L37.6733 47.74ZM41.8133 45.58L43.0561 47.147L43.0627 47.1417L41.8133 45.58ZM44.5733 42.16L42.7844 41.2655L42.779 41.2765L42.7737 41.2874L44.5733 42.16ZM43.4333 31.42L41.8292 32.6145L41.8435 32.6337L41.8583 32.6526L43.4333 31.42ZM36.1733 26.98L35.5681 28.8862L35.5742 28.8881L36.1733 26.98ZM32.3933 25.78L32.9984 23.8737L32.9864 23.8699L32.9742 23.8662L32.3933 25.78ZM27.5333 23.38L26.1495 24.824L26.1642 24.8381L26.1792 24.8518L27.5333 23.38ZM37.6733 14.56L37.1615 16.4934L37.1944 16.5021L37.2276 16.5097L37.6733 14.56ZM42.3533 16.24L41.5098 18.0534L43.6256 19.0375L44.2744 16.7961L42.3533 16.24ZM43.6733 11.68L45.5944 12.2361L46.0667 10.6045L44.5331 9.87426L43.6733 11.68ZM52.3662 10.54L52.695 8.56719L52.6455 8.55893L52.5955 8.55316L52.3662 10.54ZM50.0262 9.21998L51.6769 8.09061V8.09061L50.0262 9.21998ZM53.4462 10.72L55.4074 11.1122L55.8125 9.08677L53.775 8.74719L53.4462 10.72ZM51.7662 14.26L50.2611 12.943L50.257 12.9476L51.7662 14.26ZM49.0062 16.48L48.058 14.719L46.0451 15.8029L47.387 17.6539L49.0062 16.48ZM50.7463 18.88L49.127 20.0539L50.1566 21.474L51.6988 20.6386L50.7463 18.88ZM55.4862 14.62L53.8392 13.4854V13.4854L55.4862 14.62ZM56.9263 5.91998L55.0496 6.61139L55.0558 6.62819L55.0622 6.64487L56.9263 5.91998ZM55.8462 4.11998L54.3664 5.46532L54.3984 5.50054L54.432 5.53419L55.8462 4.11998ZM54.4662 3.21998L53.8338 5.11735L53.8559 5.1247L53.8781 5.13154L54.4662 3.21998ZM50.2062 4.11998L48.7158 2.78639L48.6958 2.80875L48.6764 2.83171L50.2062 4.11998ZM61.34 42L60.7472 43.9101L60.7562 43.9129L60.7653 43.9157L61.34 42ZM67.18 41.76L66.5073 39.8765L66.5001 39.8791L66.4929 39.8818L67.18 41.76ZM70.14 39.92L71.5316 41.3565L71.5323 41.3558L70.14 39.92ZM72.22 36.72L70.3739 35.9508L70.367 35.9673L70.3604 35.9839L72.22 36.72ZM72.42 28.24L70.5183 28.8592L70.5247 28.879L70.5316 28.8987L72.42 28.24ZM70.78 25.36L69.2686 26.6699L69.292 26.6968L69.3162 26.7228L70.78 25.36ZM68.26 23.56L67.5086 25.4135L67.5086 25.4135L68.26 23.56ZM61.66 23.68L60.7453 21.9014L60.7347 21.9069L60.7242 21.9124L61.66 23.68ZM59.3 25.36L57.3272 25.6888L57.9504 29.428L60.6851 26.8028L59.3 25.36ZM58.9 22.96L60.8728 22.6312L60.5943 20.96H58.9V22.96ZM56.58 22.96V20.96H54.58V22.96H56.58ZM56.58 51.2H54.58V53.2H56.58V51.2ZM59.34 51.2V53.2H61.34V51.2H59.34ZM59.34 41.04L60.5025 39.4125L57.34 37.1536V41.04H59.34ZM62.7 25.48L62.1253 23.5643L62.1115 23.5685L62.0977 23.5728L62.7 25.48ZM68.7 27.08L70.2917 25.869L68.7 27.08ZM69.5 35.92L67.6397 35.1857L67.6313 35.207L67.6233 35.2286L69.5 35.92ZM68.02 38.4L69.4342 39.8142L69.4493 39.7992L69.464 39.7838L68.02 38.4ZM65.9 39.76L66.5325 41.6574L66.5606 41.648L66.5885 41.6378L65.9 39.76ZM61.3 39.84L60.7118 41.7516L60.7218 41.7546L60.7318 41.7576L61.3 39.84ZM59.34 38.84H57.34V39.8488L58.1512 40.4484L59.34 38.84ZM59.34 27.84L57.7225 26.6637L57.34 27.1896V27.84H59.34ZM60.14 26.96L61.4915 28.4343L61.4966 28.4296L60.14 26.96ZM61.3 26.12L62.2805 27.8632L62.3208 27.8405L62.36 27.816L61.3 26.12ZM92.3575 36.64L94.2336 37.3333L94.2383 37.3203L92.3575 36.64ZM92.3575 28.32L90.4779 29.0035L90.4847 29.0222L90.4919 29.0408L92.3575 28.32ZM90.5575 25.36L89.1195 26.75L89.1195 26.75L90.5575 25.36ZM80.8375 23.6L80.1104 21.7368L80.1026 21.7399L80.0947 21.743L80.8375 23.6ZM78.0375 25.52L79.4747 26.9108L79.4857 26.8995L79.4966 26.8879L78.0375 25.52ZM76.1175 28.6L74.255 27.8712L74.2481 27.8889L74.2415 27.9067L76.1175 28.6ZM76.1175 36.92L74.2466 37.6268L74.2492 37.6338L74.2519 37.6408L76.1175 36.92ZM77.9575 39.92L76.497 41.2863L76.5082 41.2983L76.5195 41.31L77.9575 39.92ZM80.7175 41.76L79.9747 43.617L79.9949 43.625L80.0153 43.6327L80.7175 41.76ZM87.6375 41.72L88.3803 43.577L88.3919 43.5723L88.4035 43.5675L87.6375 41.72ZM90.4775 39.76L91.9366 41.1279V41.1279L90.4775 39.76ZM89.5975 29.24L87.7001 29.8725L87.7109 29.9046L87.7227 29.9364L89.5975 29.24ZM88.3175 38.52L86.8405 37.1715L86.8376 37.1747L88.3175 38.52ZM86.4775 39.8L87.1317 41.69L87.1638 41.6789L87.1955 41.6667L86.4775 39.8ZM82.1175 39.76L81.3629 41.6122L81.3927 41.6243L81.4229 41.6355L82.1175 39.76ZM80.1975 38.44L78.7205 39.7885L78.7355 39.8049L78.7508 39.821L80.1975 38.44ZM78.8375 36.08L76.9401 36.7125L76.948 36.736L76.9564 36.7593L78.8375 36.08ZM78.8375 29.16L76.9564 28.4807L76.9509 28.496L76.9456 28.5114L78.8375 29.16ZM80.1575 26.84L78.7108 25.4591L78.694 25.4767L78.6776 25.4947L80.1575 26.84ZM82.0375 25.56L81.3429 23.6845L81.3312 23.6888L81.3196 23.6933L82.0375 25.56ZM86.3975 25.6L85.6182 27.4419L85.6602 27.4597L85.7029 27.4755L86.3975 25.6ZM88.2775 26.92L86.7683 28.2324L86.7988 28.2674L86.8308 28.301L88.2775 26.92ZM96.6188 23.2V21.2H94.6188V23.2H96.6188ZM98.6188 23.2L100.6 22.926L100.361 21.2H98.6188V23.2ZM96.6188 42H94.6188V44H96.6188V42ZM99.3788 42V44H101.379V42H99.3788ZM101.019 27.04L99.5688 25.6625L99.5687 25.6625L101.019 27.04ZM102.779 25.84L103.522 27.697L103.553 27.6843L103.584 27.6706L102.779 25.84ZM106.339 25.56L106.854 23.6275L106.854 23.6275L106.339 25.56ZM107.419 25.96L106.524 27.7489L108.844 28.9087L109.376 26.3704L107.419 25.96ZM107.939 23.48L109.896 23.8904L110.225 22.3223L108.766 21.6593L107.939 23.48ZM106.779 23.12L106.345 25.0724V25.0724L106.779 23.12ZM101.419 24.08L102.538 25.7377L102.552 25.7282L102.566 25.7185L101.419 24.08ZM99.1388 26.96L97.1576 27.234L101.01 27.6668L99.1388 26.96ZM120.541 25.32V27.32H122.541V25.32H120.541ZM114.621 25.32V23.32H112.621V25.32H114.621ZM120.541 23.2H122.541V21.2H120.541V23.2ZM114.621 23.2H112.621V25.2H114.621V23.2ZM114.621 17.2H116.621V15.2H114.621V17.2ZM111.821 17.2V15.2H109.821V17.2H111.821ZM111.821 23.2V25.2H113.821V23.2H111.821ZM108.741 23.2V21.2H106.741V23.2H108.741ZM108.741 25.32H106.741V27.32H108.741V25.32ZM111.821 25.32H113.821V23.32H111.821V25.32ZM119.541 41.76L119.148 39.7988H119.148L119.541 41.76ZM121.541 41.2L122.283 43.057L123.839 42.4345L123.499 40.7936L121.541 41.2ZM121.101 39.08L123.059 38.6736L122.602 36.4714L120.468 37.1826L121.101 39.08ZM119.421 39.52L119.829 41.478L119.829 41.478L119.421 39.52ZM115.381 39.16L114.194 40.7701L114.214 40.7845L114.234 40.7985L115.381 39.16ZM12.72 10.12V41.02H16.72V10.12H12.72ZM9.2 12.12H14.72V8.11998H9.2V12.12ZM11.2 43.9V10.12H7.2V43.9H11.2ZM10.7985 47.9652C11.0682 46.6617 11.2 45.3053 11.2 43.9H7.2C7.2 45.0547 7.09179 46.1383 6.88148 47.1548L10.7985 47.9652ZM8.94659 51.8379C9.94237 50.7315 10.5531 49.3954 10.8109 47.8998L6.86908 47.2202C6.72694 48.0446 6.41763 48.6685 5.97341 49.1621L8.94659 51.8379ZM2.03389 54.7197C4.81759 54.6725 7.22164 53.7785 8.95482 51.8287L5.96518 49.1713C5.13836 50.1014 3.90241 50.6875 1.96611 50.7203L2.03389 54.7197ZM4 57.22V52.72H0V57.22H4ZM7.09231 54.2547C5.36129 54.8678 3.65228 55.1851 1.95834 55.2204L2.04166 59.2195C4.18772 59.1748 6.31871 58.7722 8.42769 58.0252L7.09231 54.2547ZM10.8125 51.4975C9.85291 52.841 8.63798 53.7391 7.12755 54.2426L8.39246 58.0373C10.722 57.2608 12.6271 55.839 14.0675 53.8225L10.8125 51.4975ZM12.3175 47.6557C12.1185 49.1485 11.6146 50.4063 10.8287 51.4752L14.0513 53.8448C15.2654 52.1937 16.0015 50.2915 16.2825 48.1843L12.3175 47.6557ZM12.72 41.02C12.72 43.7654 12.5819 45.9529 12.3238 47.6126L16.2762 48.2274C16.5781 46.287 16.72 43.8745 16.72 41.02H12.72ZM33.2333 11.58C34.9569 11.58 36.6142 11.7298 38.2075 12.0262L38.9391 8.09372C37.0924 7.75015 35.1897 7.57998 33.2333 7.57998V11.58ZM25.0237 14.0133C26.7309 12.4923 29.3629 11.58 33.2333 11.58V7.57998C28.7837 7.57998 25.0557 8.62762 22.3629 11.0267L25.0237 14.0133ZM22.4533 20.38C22.4533 17.5373 23.3545 15.497 25.022 14.0148L22.3646 11.0252C19.712 13.383 18.4533 16.5827 18.4533 20.38H22.4533ZM24.1062 25.1647C23.0683 24.0987 22.4533 22.5832 22.4533 20.38H18.4533C18.4533 23.3767 19.3183 25.9812 21.2403 27.9552L24.1062 25.1647ZM29.6408 28.2545C27.0848 27.4395 25.2888 26.3793 24.1062 25.1647L21.2403 27.9552C23.0177 29.7806 25.4618 31.1204 28.4257 32.0655L29.6408 28.2545ZM33.4184 29.4537L29.6384 28.2537L28.4281 32.0662L32.2081 33.2662L33.4184 29.4537ZM37.2184 30.9668C36.1612 30.4152 34.8831 29.9141 33.4129 29.452L32.2136 33.268C33.5434 33.6859 34.5854 34.1047 35.3681 34.5131L37.2184 30.9668ZM39.9189 32.9391C39.199 32.1639 38.2732 31.5172 37.2184 30.9668L35.3681 34.5131C36.1533 34.9228 36.6675 35.3161 36.9877 35.6609L39.9189 32.9391ZM41.5022 35.5034C41.1898 34.5036 40.6147 33.633 39.8675 32.8858L37.0391 35.7142C37.4118 36.0869 37.5968 36.4164 37.6843 36.6965L41.5022 35.5034ZM41.9533 38.08C41.9533 37.1345 41.7949 36.219 41.4502 35.3572L37.7363 36.8428C37.8716 37.181 37.9533 37.5854 37.9533 38.08H41.9533ZM38.7725 44.1908C40.9046 42.7882 41.9533 40.6512 41.9533 38.08H37.9533C37.9533 39.4288 37.482 40.2518 36.5741 40.8491L38.7725 44.1908ZM32.1533 46.02C34.6296 46.02 36.8691 45.4431 38.7725 44.1908L36.5741 40.8491C35.4375 41.5969 33.9969 42.02 32.1533 42.02V46.02ZM26.5194 45.363C28.3244 45.8033 30.2041 46.02 32.1533 46.02V42.02C30.5024 42.02 28.9422 41.8367 27.4672 41.4769L26.5194 45.363ZM21.0756 43.3571C22.9077 44.2519 24.7228 44.9248 26.5194 45.363L27.4672 41.4769C25.9837 41.1151 24.4388 40.5481 22.831 39.7628L21.0756 43.3571ZM22.5524 46.6229L23.8724 42.1229L20.0341 40.997L18.7141 45.497L22.5524 46.6229ZM26.8356 45.9461C25.0738 45.6585 23.2906 45.0979 21.4831 44.2495L19.7835 47.8705C21.8959 48.862 24.0328 49.5415 26.191 49.8938L26.8356 45.9461ZM32.3933 46.46C30.5988 46.46 28.7574 46.2918 26.8676 45.9516L26.159 49.8884C28.2691 50.2682 30.3478 50.46 32.3933 50.46V46.46ZM37.0986 45.8243C35.7104 46.2408 34.1471 46.46 32.3933 46.46V50.46C34.4795 50.46 36.4361 50.1992 38.248 49.6556L37.0986 45.8243ZM40.5705 44.013C39.6207 44.7663 38.4592 45.3816 37.0551 45.8379L38.2915 49.6421C40.0874 49.0584 41.6859 48.2337 43.0561 47.147L40.5705 44.013ZM42.7737 41.2874C42.2697 42.3269 41.5428 43.2351 40.5639 44.0182L43.0627 47.1417C44.4837 46.0049 45.5969 44.6331 46.3729 43.0325L42.7737 41.2874ZM43.5933 37.66C43.5933 39.0144 43.3148 40.2047 42.7844 41.2655L46.3621 43.0544C47.1917 41.3952 47.5933 39.5856 47.5933 37.66H43.5933ZM41.8583 32.6526C43.025 34.1434 43.5933 35.7902 43.5933 37.66H47.5933C47.5933 34.8897 46.7215 32.3765 45.0083 30.1874L41.8583 32.6526ZM35.5742 28.8881C38.8151 29.9056 40.7833 31.21 41.8292 32.6145L45.0374 30.2255C43.2833 27.87 40.4115 26.2143 36.7724 25.0718L35.5742 28.8881ZM31.7881 27.6862L35.5681 28.8862L36.7784 25.0737L32.9984 23.8737L31.7881 27.6862ZM26.1792 24.8518C27.5061 26.0726 29.464 26.9809 31.8123 27.6937L32.9742 23.8662C30.8425 23.2191 29.5605 22.5274 28.8874 21.9081L26.1792 24.8518ZM24.0933 19.72C24.0933 21.6998 24.7382 23.4715 26.1495 24.824L28.9171 21.936C28.4084 21.4485 28.0933 20.7802 28.0933 19.72H24.0933ZM26.8656 13.9258C24.9984 15.3403 24.0933 17.3568 24.0933 19.72H28.0933C28.0933 18.4832 28.5082 17.6996 29.281 17.1142L26.8656 13.9258ZM33.4733 12.02C30.9187 12.02 28.643 12.5793 26.8656 13.9258L29.281 17.1142C30.1436 16.4607 31.4678 16.02 33.4733 16.02V12.02ZM38.1851 12.6266C36.6541 12.2213 35.0819 12.02 33.4733 12.02V16.02C34.7446 16.02 35.9724 16.1786 37.1615 16.4934L38.1851 12.6266ZM43.1967 14.4265C41.3873 13.5849 39.6915 12.9697 38.1189 12.6103L37.2276 16.5097C38.455 16.7902 39.8793 17.295 41.5098 18.0534L43.1967 14.4265ZM41.7522 11.1239L40.4322 15.6839L44.2744 16.7961L45.5944 12.2361L41.7522 11.1239ZM38.2519 12.034C39.7732 12.2816 41.2925 12.7615 42.8134 13.4857L44.5331 9.87426C42.694 8.99849 40.8134 8.39832 38.8946 8.08596L38.2519 12.034ZM52.5955 8.55316C52.0434 8.48946 51.8229 8.30401 51.6769 8.09061L48.3756 10.3493C49.2696 11.6559 50.6091 12.3505 52.137 12.5268L52.5955 8.55316ZM53.775 8.74719L52.695 8.56719L52.0374 12.5128L53.1174 12.6928L53.775 8.74719ZM53.2714 15.577C54.3681 14.3236 55.0672 12.8133 55.4074 11.1122L51.4851 10.3277C51.2653 11.4267 50.8444 12.2764 50.2611 12.943L53.2714 15.577ZM49.9544 18.2409C51.2138 17.5628 52.3222 16.6685 53.2755 15.5723L50.257 12.9476C49.6103 13.6914 48.8787 14.2772 48.058 14.719L49.9544 18.2409ZM52.3655 17.706L50.6255 15.306L47.387 17.6539L49.127 20.0539L52.3655 17.706ZM53.8392 13.4854C52.7781 15.0258 51.4359 16.2318 49.7937 17.1214L51.6988 20.6386C53.8966 19.4481 55.7144 17.8142 57.1333 15.7546L53.8392 13.4854ZM55.3462 8.67998C55.3462 10.4296 54.8523 12.0148 53.8392 13.4854L57.1333 15.7546C58.6002 13.6251 59.3462 11.2503 59.3462 8.67998H55.3462ZM55.0622 6.64487C55.2216 7.0547 55.3462 7.70598 55.3462 8.67998H59.3462C59.3462 7.41398 59.1909 6.22526 58.7903 5.19509L55.0622 6.64487ZM54.432 5.53419C54.6155 5.71765 54.8407 6.04441 55.0496 6.61139L58.8029 5.22856C58.4518 4.27554 57.957 3.40231 57.2605 2.70577L54.432 5.53419ZM53.8781 5.13154C54.024 5.17645 54.1844 5.26513 54.3664 5.46532L57.3261 2.77464C56.7081 2.09483 55.9484 1.58351 55.0544 1.30842L53.8781 5.13154ZM53.0262 4.97998C53.2799 4.97998 53.5466 5.02163 53.8338 5.11735L55.0987 1.32261C54.4259 1.09833 53.7326 0.97998 53.0262 0.97998V4.97998ZM51.6967 5.45357C51.9295 5.19337 52.285 4.97998 53.0262 4.97998V0.97998C51.3675 0.97998 49.843 1.52659 48.7158 2.78639L51.6967 5.45357ZM51.2463 6.69998C51.2463 6.22905 51.3882 5.8214 51.7361 5.40825L48.6764 2.83171C47.7443 3.93856 47.2463 5.25091 47.2463 6.69998H51.2463ZM51.6769 8.09061C51.3842 7.66293 51.2463 7.21651 51.2463 6.69998H47.2463C47.2463 8.02345 47.6283 9.25703 48.3756 10.3493L51.6769 8.09061ZM63.82 40.36C63.1571 40.36 62.5242 40.2672 61.9147 40.0843L60.7653 43.9157C61.7558 44.2128 62.7763 44.36 63.82 44.36V40.36ZM66.4929 39.8818C65.6162 40.2025 64.7286 40.36 63.82 40.36V44.36C65.2047 44.36 66.5571 44.1175 67.8672 43.6382L66.4929 39.8818ZM68.7484 38.4835C68.1003 39.1114 67.3588 39.5724 66.5073 39.8765L67.8527 43.6435C69.2412 43.1476 70.4731 42.3819 71.5316 41.3565L68.7484 38.4835ZM70.3604 35.9839C69.9453 37.0327 69.4004 37.8513 68.7477 38.4842L71.5323 41.3558C72.6396 40.282 73.4814 38.9673 74.0796 37.4561L70.3604 35.9839ZM71.02 32.16C71.02 33.7243 70.7823 34.9705 70.3739 35.9508L74.0662 37.4892C74.7244 35.9095 75.02 34.1157 75.02 32.16H71.02ZM70.5316 28.8987C70.8442 29.7949 71.02 30.8725 71.02 32.16H75.02C75.02 30.5142 74.7958 28.9785 74.3084 27.5813L70.5316 28.8987ZM69.3162 26.7228C69.8116 27.2549 70.2223 27.9502 70.5183 28.8592L74.3218 27.6208C73.871 26.2365 73.1884 25.0117 72.2438 23.9972L69.3162 26.7228ZM67.5086 25.4135C68.2043 25.6955 68.7834 26.1099 69.2686 26.6699L72.2914 24.0501C71.39 23.0101 70.289 22.2245 69.0114 21.7065L67.5086 25.4135ZM64.98 24.96C65.9551 24.96 66.7891 25.1218 67.5086 25.4135L69.0114 21.7065C67.7576 21.1982 66.405 20.96 64.98 20.96V24.96ZM62.5747 25.4586C63.1696 25.1526 63.9492 24.96 64.98 24.96V20.96C63.4508 20.96 62.0171 21.2474 60.7453 21.9014L62.5747 25.4586ZM60.6851 26.8028C61.204 26.3046 61.8354 25.8501 62.5958 25.4476L60.7242 21.9124C59.6713 22.4699 58.7294 23.1354 57.9149 23.9172L60.6851 26.8028ZM56.9272 23.2888L57.3272 25.6888L61.2728 25.0312L60.8728 22.6312L56.9272 23.2888ZM56.58 24.96H58.9V20.96H56.58V24.96ZM58.58 51.2V22.96H54.58V51.2H58.58ZM59.34 49.2H56.58V53.2H59.34V49.2ZM57.34 41.04V51.2H61.34V41.04H57.34ZM61.9328 40.0899C61.3282 39.9022 60.8613 39.6688 60.5025 39.4125L58.1775 42.6675C58.9387 43.2111 59.8052 43.6178 60.7472 43.9101L61.9328 40.0899ZM64.38 23.24C63.6092 23.24 62.8548 23.3455 62.1253 23.5643L63.2747 27.3957C63.6118 27.2945 63.9775 27.24 64.38 27.24V23.24ZM70.2917 25.869C68.8825 24.0169 66.7702 23.24 64.38 23.24V27.24C65.8831 27.24 66.6509 27.6898 67.1084 28.291L70.2917 25.869ZM72.1 32.2C72.1 29.754 71.5806 27.563 70.2917 25.869L67.1084 28.291C67.6861 29.0503 68.1 30.2727 68.1 32.2H72.1ZM71.3603 36.6543C71.8785 35.3415 72.1 33.8362 72.1 32.2H68.1C68.1 33.4971 67.9215 34.4718 67.6397 35.1857L71.3603 36.6543ZM69.464 39.7838C70.3044 38.9069 70.9285 37.8278 71.3767 36.6114L67.6233 35.2286C67.3248 36.0388 66.9623 36.6131 66.576 37.0162L69.464 39.7838ZM66.5885 41.6378C67.6662 41.2426 68.6193 40.6291 69.4342 39.8142L66.6058 36.9858C66.194 37.3976 65.7338 37.6907 65.2115 37.8822L66.5885 41.6378ZM63.46 42.16C64.506 42.16 65.5327 41.9906 66.5325 41.6574L65.2676 37.8626C64.6673 38.0627 64.0674 38.16 63.46 38.16V42.16ZM60.7318 41.7576C61.6283 42.0232 62.5395 42.16 63.46 42.16V38.16C62.9405 38.16 62.4117 38.0834 61.8682 37.9224L60.7318 41.7576ZM58.1512 40.4484C58.9368 41.029 59.7917 41.4684 60.7118 41.7516L61.8882 37.9284C61.4216 37.7849 60.9699 37.5577 60.5288 37.2316L58.1512 40.4484ZM57.34 27.84V38.84H61.34V27.84H57.34ZM58.7886 25.4857C58.3887 25.8522 58.0279 26.2438 57.7225 26.6637L60.9575 29.0163C61.0788 28.8496 61.2513 28.6545 61.4915 28.4343L58.7886 25.4857ZM60.3195 24.3768C59.7624 24.6902 59.2486 25.061 58.7835 25.4904L61.4966 28.4296C61.7247 28.219 61.9843 28.0298 62.2805 27.8632L60.3195 24.3768ZM62.0977 23.5728C61.4392 23.7808 60.8175 24.0631 60.24 24.424L62.36 27.816C62.6358 27.6436 62.9475 27.4992 63.3023 27.3872L62.0977 23.5728ZM91.0375 32.4C91.0375 33.7823 90.8384 34.9599 90.4768 35.9597L94.2383 37.3203C94.7833 35.8134 95.0375 34.1644 95.0375 32.4H91.0375ZM90.4919 29.0408C90.8386 29.9381 91.0375 31.0451 91.0375 32.4H95.0375C95.0375 30.6616 94.7831 29.0485 94.2231 27.5992L90.4919 29.0408ZM89.1195 26.75C89.6751 27.3248 90.1355 28.0618 90.4779 29.0035L94.2371 27.6365C93.7262 26.2316 92.9865 24.9952 91.9955 23.97L89.1195 26.75ZM87.0953 25.4327C87.8907 25.731 88.5576 26.1687 89.1195 26.75L91.9955 23.97C91.0108 22.9513 89.8376 22.189 88.4998 21.6873L87.0953 25.4327ZM84.3575 24.96C85.3629 24.96 86.2699 25.1231 87.0953 25.4327L88.4998 21.6873C87.1918 21.1969 85.8055 20.96 84.3575 20.96V24.96ZM81.5646 25.4632C82.4108 25.1329 83.3359 24.96 84.3575 24.96V20.96C82.8725 20.96 81.4509 21.2137 80.1104 21.7368L81.5646 25.4632ZM79.4966 26.8879C80.1002 26.244 80.7903 25.7729 81.5803 25.457L80.0947 21.743C78.7514 22.2804 77.5748 23.0893 76.5784 24.1521L79.4966 26.8879ZM77.98 29.3288C78.3774 28.3133 78.8837 27.5216 79.4747 26.9108L76.6003 24.1292C75.5913 25.1718 74.8176 26.4334 74.255 27.8712L77.98 29.3288ZM77.4375 32.8C77.4375 31.4166 77.637 30.2581 77.9935 29.2933L74.2415 27.9067C73.6914 29.3953 73.4375 31.0368 73.4375 32.8H77.4375ZM77.9885 36.2132C77.636 35.2802 77.4375 34.1535 77.4375 32.8H73.4375C73.4375 34.5398 73.6923 36.1598 74.2466 37.6268L77.9885 36.2132ZM79.4181 38.5537C78.8383 37.934 78.3543 37.16 77.9831 36.1992L74.2519 37.6408C74.7874 39.0267 75.53 40.2527 76.497 41.2863L79.4181 38.5537ZM81.4603 39.903C80.647 39.5777 79.9662 39.1203 79.3955 38.53L76.5195 41.31C77.4955 42.3197 78.6547 43.0889 79.9747 43.617L81.4603 39.903ZM84.1975 40.36C83.16 40.36 82.2404 40.1951 81.4198 39.8873L80.0153 43.6327C81.3279 44.1249 82.7284 44.36 84.1975 44.36V40.36ZM86.8947 39.863C86.08 40.189 85.1872 40.36 84.1975 40.36V44.36C85.6612 44.36 87.0617 44.1044 88.3803 43.577L86.8947 39.863ZM89.0184 38.3921C88.4151 39.0356 87.7056 39.5267 86.8715 39.8725L88.4035 43.5675C89.7561 43.0067 90.9399 42.191 91.9366 41.1279L89.0184 38.3921ZM90.4815 35.9467C90.1098 36.9525 89.6154 37.7553 89.0184 38.3921L91.9366 41.1279C92.9396 40.058 93.6985 38.7808 94.2335 37.3333L90.4815 35.9467ZM92.1175 32.6C92.1175 31.1258 91.9232 29.7573 91.4724 28.5436L87.7227 29.9364C87.9652 30.5894 88.1175 31.4608 88.1175 32.6H92.1175ZM91.5349 36.7925C91.9439 35.5654 92.1175 34.1498 92.1175 32.6H88.1175C88.1175 33.8769 87.9711 34.8346 87.7401 35.5275L91.5349 36.7925ZM89.7945 39.8685C90.5797 39.0086 91.1453 37.9613 91.5349 36.7925L87.7401 35.5275C87.4897 36.2787 87.1753 36.8048 86.8405 37.1715L89.7945 39.8685ZM87.1955 41.6667C88.1994 41.2806 89.0687 40.6669 89.7974 39.8653L86.8376 37.1747C86.4997 37.5464 86.1423 37.7861 85.7596 37.9333L87.1955 41.6667ZM84.3175 42.16C85.2829 42.16 86.2242 42.0041 87.1317 41.69L85.8233 37.91C85.3441 38.0759 84.8455 38.16 84.3175 38.16V42.16ZM81.4229 41.6355C82.3588 41.9821 83.327 42.16 84.3175 42.16V38.16C83.8147 38.16 83.3162 38.0712 82.8121 37.8845L81.4229 41.6355ZM78.7508 39.821C79.4971 40.6027 80.3702 41.2078 81.3629 41.6122L82.8721 37.9078C82.4248 37.7256 82.018 37.4506 81.6442 37.059L78.7508 39.821ZM76.9564 36.7593C77.3726 37.9118 77.9475 38.9419 78.7205 39.7885L81.6745 37.0915C81.3275 36.7114 80.9958 36.1682 80.7186 35.4007L76.9564 36.7593ZM76.3575 32.6C76.3575 34.1059 76.5333 35.492 76.9401 36.7125L80.7349 35.4475C80.5017 34.748 80.3575 33.8141 80.3575 32.6H76.3575ZM76.9456 28.5114C76.5326 29.7159 76.3575 31.0967 76.3575 32.6H80.3575C80.3575 31.3833 80.5024 30.4708 80.7294 29.8086L76.9456 28.5114ZM78.6776 25.4947C77.9256 26.3219 77.3675 27.3422 76.9564 28.4807L80.7186 29.8393C81.0008 29.0578 81.3227 28.5315 81.6374 28.1853L78.6776 25.4947ZM81.3196 23.6933C80.3258 24.0755 79.4559 24.6785 78.7108 25.4591L81.6042 28.2209C81.9792 27.8282 82.3625 27.5778 82.7555 27.4267L81.3196 23.6933ZM84.2375 23.16C83.247 23.16 82.2788 23.3379 81.3429 23.6845L82.7321 27.4355C83.2362 27.2488 83.7347 27.16 84.2375 27.16V23.16ZM87.1768 23.7581C86.239 23.3613 85.2542 23.16 84.2375 23.16V27.16C84.7142 27.16 85.1694 27.252 85.6182 27.4419L87.1768 23.7581ZM89.7867 25.6076C89.0467 24.7566 88.1451 24.1145 87.0921 23.7245L85.7029 27.4755C86.0899 27.6188 86.4417 27.8567 86.7683 28.2324L89.7867 25.6076ZM91.4949 28.6075C91.1041 27.4353 90.5317 26.385 89.7242 25.539L86.8308 28.301C87.1433 28.6283 87.4509 29.1247 87.7001 29.8725L91.4949 28.6075ZM96.6188 25.2H98.6188V21.2H96.6188V25.2ZM98.6188 42V23.2H94.6188V42H98.6188ZM99.3788 40H96.6188V44H99.3788V40ZM97.3788 31.92V42H101.379V31.92H97.3788ZM97.9339 28.4112C97.5499 29.4933 97.3788 30.6731 97.3788 31.92H101.379C101.379 31.0336 101.501 30.32 101.704 29.7488L97.9339 28.4112ZM99.5687 25.6625C98.8356 26.4342 98.3032 27.3704 97.9339 28.4112L101.704 29.7488C101.921 29.1362 102.189 28.7124 102.469 28.4175L99.5687 25.6625ZM102.036 23.983C101.095 24.3594 100.269 24.9255 99.5688 25.6625L102.469 28.4175C102.782 28.0878 103.129 27.8539 103.522 27.697L102.036 23.983ZM104.939 23.4C103.906 23.4 102.909 23.5975 101.973 24.0094L103.584 27.6706C103.982 27.4958 104.425 27.4 104.939 27.4V23.4ZM106.854 23.6275C106.246 23.4653 105.599 23.4 104.939 23.4V27.4C105.345 27.4 105.632 27.4414 105.823 27.4925L106.854 23.6275ZM108.313 24.1711C107.855 23.942 107.365 23.7638 106.854 23.6275L105.823 27.4925C106.112 27.5695 106.343 27.658 106.524 27.7489L108.313 24.1711ZM105.981 23.0696L105.461 25.5496L109.376 26.3704L109.896 23.8904L105.981 23.0696ZM106.345 25.0724C106.752 25.1629 106.992 25.2464 107.111 25.3007L108.766 21.6593C108.299 21.4469 107.765 21.2904 107.213 21.1676L106.345 25.0724ZM105.059 24.96C105.627 24.96 106.047 25.0063 106.345 25.0724L107.213 21.1676C106.55 21.0204 105.824 20.96 105.059 20.96V24.96ZM102.566 25.7185C103.281 25.218 104.09 24.96 105.059 24.96V20.96C103.308 20.96 101.69 21.4487 100.272 22.4415L102.566 25.7185ZM101.01 27.6668C101.316 26.8553 101.813 26.227 102.538 25.7377L100.3 22.4223C98.8913 23.373 97.8679 24.6647 97.2678 26.2532L101.01 27.6668ZM96.6376 23.474L97.1576 27.234L101.12 26.686L100.6 22.926L96.6376 23.474ZM120.541 23.32H114.621V27.32H120.541V23.32ZM118.541 23.2V25.32H122.541V23.2H118.541ZM114.621 25.2H120.541V21.2H114.621V25.2ZM112.621 17.2V23.2H116.621V17.2H112.621ZM111.821 19.2H114.621V15.2H111.821V19.2ZM113.821 23.2V17.2H109.821V23.2H113.821ZM108.741 25.2H111.821V21.2H108.741V25.2ZM110.741 25.32V23.2H106.741V25.32H110.741ZM111.821 23.32H108.741V27.32H111.821V23.32ZM113.821 37.32V25.32H109.821V37.32H113.821ZM116.941 40C115.5 40 114.793 39.667 114.45 39.3538C114.141 39.0717 113.821 38.5231 113.821 37.32H109.821C109.821 39.2369 110.353 41.0283 111.751 42.3062C113.115 43.553 114.968 44 116.941 44V40ZM119.148 39.7988C118.494 39.9296 117.761 40 116.941 40V44C117.987 44 118.987 43.9104 119.933 43.7212L119.148 39.7988ZM120.798 39.343C120.414 39.4965 119.874 39.6537 119.148 39.7988L119.933 43.7212C120.807 43.5463 121.6 43.3301 122.283 43.057L120.798 39.343ZM119.142 39.4864L119.582 41.6064L123.499 40.7936L123.059 38.6736L119.142 39.4864ZM119.829 41.478C120.524 41.3331 121.162 41.1678 121.733 40.9774L120.468 37.1826C120.079 37.3122 119.597 37.4402 119.013 37.562L119.829 41.478ZM117.461 41.72C118.262 41.72 119.052 41.6398 119.829 41.478L119.013 37.562C118.51 37.6669 117.993 37.72 117.461 37.72V41.72ZM114.234 40.7985C115.194 41.4705 116.323 41.72 117.461 41.72V37.72C116.891 37.72 116.634 37.5962 116.528 37.5215L114.234 40.7985ZM112.621 36.96C112.621 38.2319 112.895 39.8128 114.194 40.7701L116.567 37.5499C116.709 37.6545 116.726 37.7507 116.701 37.677C116.67 37.587 116.621 37.368 116.621 36.96H112.621ZM112.621 25.32V36.96H116.621V25.32H112.621Z" fill="#F4AA00" mask="url(#path-1-outside-1_16_1203)"/>
</svg>
